<?xml version="1.0" encoding="iso-8859-1"?>
<!-- Uploaded to: SVG Repo, www.svgrepo.com, Generator: SVG Repo Mixer Tools -->
<svg fill="#000000" height="800px" width="800px" version="1.1" id="Layer_1" xmlns="http://www.w3.org/2000/svg" xmlns:xlink="http://www.w3.org/1999/xlink" 
	 viewBox="0 0 398.395 398.395" xml:space="preserve">
<g>
	<g>
		<g>
			<path d="M34.499,371.395h137.698c4.143,0,7.5-3.358,7.5-7.5V226.198c0.001-4.142-3.357-7.5-7.499-7.5H34.499
				c-4.143,0-7.5,3.358-7.5,7.5v137.697C26.999,368.037,30.356,371.395,34.499,371.395z M41.999,233.698h122.698v122.697H41.999
				V233.698z"/>
			<path d="M134.015,258.095H72.682c-4.143,0-7.5,3.358-7.5,7.5v26c0,4.142,3.357,7.5,7.5,7.5h61.333c4.143,0,7.5-3.358,7.5-7.5v-26
				C141.515,261.453,138.158,258.095,134.015,258.095z M126.515,284.095H80.182v-11h46.333V284.095z"/>
			<path d="M134.015,310.095H72.682c-4.143,0-7.5,3.358-7.5,7.5c0,4.142,3.357,7.5,7.5,7.5h61.333c4.143,0,7.5-3.358,7.5-7.5
				C141.515,313.453,138.158,310.095,134.015,310.095z"/>
			<path d="M226.197,371.395h137.698c4.143,0,7.5-3.358,7.5-7.5V226.198c0-4.142-3.357-7.5-7.5-7.5H226.197
				c-4.143,0-7.5,3.358-7.5,7.5v137.697C218.697,368.037,222.054,371.395,226.197,371.395z M233.697,233.698h122.698v122.697
				H233.697V233.698z"/>
			<path d="M325.713,258.095h-61.334c-4.143,0-7.5,3.358-7.5,7.5v26c0,4.142,3.357,7.5,7.5,7.5h61.334c4.143,0,7.5-3.358,7.5-7.5
				v-26C333.213,261.453,329.856,258.095,325.713,258.095z M318.213,284.095h-46.334v-11h46.334V284.095z"/>
			<path d="M325.713,310.095h-61.334c-4.143,0-7.5,3.358-7.5,7.5c0,4.142,3.357,7.5,7.5,7.5h61.334c4.143,0,7.5-3.358,7.5-7.5
				C333.213,313.453,329.856,310.095,325.713,310.095z"/>
			<path d="M34.499,179.697h137.698c4.143,0,7.5-3.358,7.5-7.5V34.5c0.001-4.142-3.357-7.5-7.499-7.5H34.499
				c-4.143,0-7.5,3.358-7.5,7.5v137.697C26.999,176.339,30.356,179.697,34.499,179.697z M41.999,42h122.698v122.697H41.999V42z"/>
			<path d="M134.015,66.397H72.682c-4.143,0-7.5,3.358-7.5,7.5v26c0,4.143,3.357,7.5,7.5,7.5h61.333c4.143,0,7.5-3.358,7.5-7.5v-26
				C141.515,69.755,138.158,66.397,134.015,66.397z M126.515,92.397H80.182v-11h46.333V92.397z"/>
			<path d="M134.015,118.397H72.682c-4.143,0-7.5,3.358-7.5,7.5c0,4.142,3.357,7.5,7.5,7.5h61.333c4.143,0,7.5-3.358,7.5-7.5
				C141.515,121.755,138.158,118.397,134.015,118.397z"/>
			<path d="M390.895,0H7.5C3.358,0,0,3.358,0,7.5v383.395c0,4.142,3.357,7.5,7.5,7.5h383.395c4.143,0,7.5-3.358,7.5-7.5V7.5
				C398.395,3.358,395.037,0,390.895,0z M191.697,383.395H15V206.697h176.697V383.395z M191.697,191.697H15V15h176.697V191.697z
				 M383.395,383.395H206.698V206.697h176.697V383.395z M383.395,191.697H206.698V15h176.697V191.697z"/>
			<path d="M226.197,179.697h137.698c4.143,0,7.5-3.358,7.5-7.5V34.5c0-4.142-3.357-7.5-7.5-7.5H226.197c-4.143,0-7.5,3.358-7.5,7.5
				v137.697C218.697,176.339,222.054,179.697,226.197,179.697z M233.697,42h122.698v122.697H233.697V42z"/>
			<path d="M325.713,66.397h-61.334c-4.143,0-7.5,3.358-7.5,7.5v26c0,4.142,3.357,7.5,7.5,7.5h61.334c4.143,0,7.5-3.358,7.5-7.5v-26
				C333.213,69.755,329.856,66.397,325.713,66.397z M318.213,92.397h-46.334v-11h46.334V92.397z"/>
			<path d="M303.858,118.397h-39.479c-4.143,0-7.5,3.358-7.5,7.5c0,4.142,3.357,7.5,7.5,7.5h39.479c4.143,0,7.5-3.358,7.5-7.5
				C311.358,121.755,308,118.397,303.858,118.397z"/>
			<path d="M332.64,123.026c0.018,0.044,0.034,0.082,0.045,0.106C332.676,123.112,332.663,123.08,332.64,123.026z"/>
			<path d="M332.685,123.132C332.698,123.163,332.694,123.154,332.685,123.132L332.685,123.132z"/>
			<path d="M318.79,123.026c-2.651,6.399,4.42,12.738,10.491,9.463c3.316-1.789,4.836-5.974,3.359-9.463
				C330.111,117.017,321.3,116.97,318.79,123.026z"/>
			<path d="M332.64,123.026c-0.019-0.044-0.034-0.082-0.045-0.106C332.604,122.94,332.617,122.972,332.64,123.026z"/>
			<path d="M332.595,122.92C332.582,122.889,332.586,122.898,332.595,122.92L332.595,122.92z"/>
		</g>
	</g>
</g>
</svg>